<mxfile host="app.diagrams.net" modified="2023-07-31T10:54:20.282Z" agent="Mozilla/5.0 (Windows NT 10.0; Win64; x64; rv:109.0) Gecko/20100101 Firefox/115.0" etag="A7ADMf84ijq02I-J4_dY" version="21.6.5" type="device">
  <diagram name="Seite-1" id="vuVPqhQdGNFsnxPlf6Ny">
    <mxGraphModel dx="3385" dy="3002" grid="1" gridSize="10" guides="1" tooltips="1" connect="1" arrows="1" fold="1" page="1" pageScale="1" pageWidth="827" pageHeight="1169" math="0" shadow="0">
      <root>
        <mxCell id="0" />
        <mxCell id="1" parent="0" />
        <mxCell id="g9_4AZKj9o_rdkb9CTvJ-13" value="" style="edgeStyle=orthogonalEdgeStyle;rounded=0;orthogonalLoop=1;jettySize=auto;html=1;" edge="1" parent="1" source="g9_4AZKj9o_rdkb9CTvJ-14" target="g9_4AZKj9o_rdkb9CTvJ-17">
          <mxGeometry relative="1" as="geometry" />
        </mxCell>
        <mxCell id="g9_4AZKj9o_rdkb9CTvJ-14" value="Klick auf den Lernen- Button auf der Navbar" style="ellipse;whiteSpace=wrap;html=1;" vertex="1" parent="1">
          <mxGeometry x="380" y="-1070" width="138" height="90" as="geometry" />
        </mxCell>
        <mxCell id="g9_4AZKj9o_rdkb9CTvJ-15" value="Neues Fach anlegen" style="text;html=1;strokeColor=none;fillColor=none;align=center;verticalAlign=middle;whiteSpace=wrap;rounded=0;" vertex="1" parent="1">
          <mxGeometry x="380" y="-1110" width="147" height="30" as="geometry" />
        </mxCell>
        <mxCell id="g9_4AZKj9o_rdkb9CTvJ-16" value="" style="edgeStyle=orthogonalEdgeStyle;rounded=0;orthogonalLoop=1;jettySize=auto;html=1;" edge="1" parent="1" source="g9_4AZKj9o_rdkb9CTvJ-17" target="g9_4AZKj9o_rdkb9CTvJ-19">
          <mxGeometry relative="1" as="geometry" />
        </mxCell>
        <mxCell id="g9_4AZKj9o_rdkb9CTvJ-17" value="Klick auf den Hinzufügen (+) Button " style="whiteSpace=wrap;html=1;" vertex="1" parent="1">
          <mxGeometry x="389" y="-945" width="120" height="60" as="geometry" />
        </mxCell>
        <mxCell id="g9_4AZKj9o_rdkb9CTvJ-18" value="" style="edgeStyle=orthogonalEdgeStyle;rounded=0;orthogonalLoop=1;jettySize=auto;html=1;" edge="1" parent="1" source="g9_4AZKj9o_rdkb9CTvJ-19" target="g9_4AZKj9o_rdkb9CTvJ-21">
          <mxGeometry relative="1" as="geometry" />
        </mxCell>
        <mxCell id="g9_4AZKj9o_rdkb9CTvJ-19" value="Popup mit Eingabefeld für den Namen des Fachs" style="whiteSpace=wrap;html=1;" vertex="1" parent="1">
          <mxGeometry x="389" y="-845" width="120" height="60" as="geometry" />
        </mxCell>
        <mxCell id="g9_4AZKj9o_rdkb9CTvJ-20" value="" style="edgeStyle=orthogonalEdgeStyle;rounded=0;orthogonalLoop=1;jettySize=auto;html=1;" edge="1" parent="1" source="g9_4AZKj9o_rdkb9CTvJ-21" target="g9_4AZKj9o_rdkb9CTvJ-23">
          <mxGeometry relative="1" as="geometry" />
        </mxCell>
        <mxCell id="g9_4AZKj9o_rdkb9CTvJ-21" value="Klick auf den Speichern Button" style="whiteSpace=wrap;html=1;" vertex="1" parent="1">
          <mxGeometry x="389" y="-757" width="120" height="60" as="geometry" />
        </mxCell>
        <mxCell id="g9_4AZKj9o_rdkb9CTvJ-22" value="" style="edgeStyle=orthogonalEdgeStyle;rounded=0;orthogonalLoop=1;jettySize=auto;html=1;" edge="1" parent="1" source="g9_4AZKj9o_rdkb9CTvJ-23" target="g9_4AZKj9o_rdkb9CTvJ-24">
          <mxGeometry relative="1" as="geometry" />
        </mxCell>
        <mxCell id="g9_4AZKj9o_rdkb9CTvJ-23" value="Speicherung ins Backend mit Post-Request" style="whiteSpace=wrap;html=1;" vertex="1" parent="1">
          <mxGeometry x="389" y="-671" width="120" height="60" as="geometry" />
        </mxCell>
        <mxCell id="g9_4AZKj9o_rdkb9CTvJ-24" value="Automatische Weiterleitung auf die Übersichtsseite" style="ellipse;whiteSpace=wrap;html=1;" vertex="1" parent="1">
          <mxGeometry x="384" y="-581" width="130" height="111" as="geometry" />
        </mxCell>
      </root>
    </mxGraphModel>
  </diagram>
</mxfile>
